<svg width="125" height="112" viewBox="0 0 125 112" fill="none" xmlns="http://www.w3.org/2000/svg">
<path d="M95.7823 46.6203C95.468 45.77 94.8216 45.0716 94.0832 44.5414C92.2949 43.2542 89.1118 43.3044 85.9896 43.8107C84.0799 44.1225 82.962 41.7292 84.446 40.4922C87.8073 37.6872 91.1552 34.5826 91.8385 32.2664C93.4191 26.9104 87.598 22.2545 82.6522 24.8804C78.7349 26.9594 75.509 30.3515 73.8901 34.4734C75.6497 26.1028 77.4098 17.7338 79.1682 9.36355C79.5267 7.65996 79.5343 5.87808 79.0169 4.21592C77.3043 -1.27315 72.1981 -0.669272 69.4079 1.89218C67.6201 3.5351 66.5954 5.82912 65.7251 8.09388C62.3936 16.7554 60.5923 25.9981 60.4276 35.2706C60.61 31.8115 59.6715 28.3483 57.9043 25.3692C55.1095 20.6568 48.1784 21.4866 46.657 26.7451C44.1694 35.343 44.8305 44.8665 48.7478 52.9355C47.0411 49.7748 45.213 46.4785 41.8239 44.8975C40.4967 44.2773 38.9845 44.0472 37.5523 44.3598C33.2172 45.3105 32.5502 49.7279 33.8976 52.9518C34.8777 55.2931 36.7206 57.1532 38.5176 58.9484C45.8909 66.3106 53.2624 73.6715 60.6352 81.0336C60.5272 70.664 68.3333 60.7391 78.4697 58.3593C82.3467 57.4499 86.4742 57.5298 90.1646 56.0359C93.9247 54.5123 97.2041 50.4585 95.7823 46.6203Z" fill="#209041"/>
<path d="M85.4955 50.7868C78.3433 50.0989 70.3712 52.8285 65.0396 57.9736C66.1382 54.9251 67.5613 51.9933 69.1776 49.1883C72.9079 42.7133 78.1252 38.1591 83.5042 33.15C83.7383 32.9315 83.4403 32.58 83.1735 32.7235C77.0711 35.955 72.2141 41.919 68.5506 47.6219C66.1471 51.3656 63.8578 55.9407 62.5058 60.5936C62.5294 60.207 62.5428 59.8174 62.571 59.4307C62.9891 53.7927 63.628 48.1709 64.4109 42.5714C65.8785 32.087 68.7179 21.8965 70.4095 11.4753C70.4347 11.3188 70.2287 11.2615 70.1724 11.4105C66.448 21.1391 64.8098 31.9942 63.201 42.2396C62.442 47.0741 61.8473 51.9355 61.3463 56.8044C61.1374 58.8415 60.8971 60.9318 60.6941 63.0283C59.7686 59.9354 58.7222 56.8634 57.8119 53.8383C56.003 47.8316 54.129 41.8512 52.2223 35.8751C52.1454 35.6332 51.7759 35.7319 51.8398 35.9801C53.3074 41.6148 54.7872 47.2382 56.3468 52.8478C57.5345 57.1216 58.5444 61.6051 59.8905 65.9099C59.883 65.9333 59.8712 65.9542 59.8636 65.9777C59.7879 66.202 59.8993 66.3748 60.0624 66.4723C60.1603 66.7766 60.2671 67.0745 60.3692 67.3775C60.3574 67.6357 60.3574 67.8926 60.3486 68.1508C56.5678 61.8943 48.974 56.2345 42.3674 54.1764C42.1211 54.0998 41.9732 54.4614 42.1938 54.5852C45.9968 56.7496 49.6275 58.7398 52.9607 61.6315C55.8664 64.1515 57.8963 67.2519 60.3041 70.1703C60.3057 70.9839 60.3246 71.7927 60.3797 72.5929C60.4284 73.3076 61.6014 73.5717 61.7153 72.7732C61.791 72.2372 61.8473 71.6969 61.9024 71.155C62.2121 71.3161 62.642 71.0947 62.5621 70.6399C62.4478 69.9753 62.3146 69.3095 62.1705 68.6454C62.2272 68.5894 62.2894 68.5392 62.3146 68.4475C62.9253 66.2346 63.3241 63.9879 63.8726 61.7645C69.1436 55.1657 76.3474 51.0454 85.4955 51.3626C85.8733 51.376 85.8586 50.8224 85.4955 50.7868Z" fill="white"/>
<path d="M124.973 112C125.587 96.8299 115.625 81.6332 102.083 73.8634C86.3033 64.8082 67.0028 64.0758 48.9471 66.4599C36.8135 68.063 24.4706 71.1367 14.709 78.4917C3.80597 86.7042 0.910309 98.0343 0.0891021 110.211C0.0491765 110.804 0.0298392 111.404 0 112H124.973Z" fill="#ED6B06"/>
<path d="M103.958 79.0595C92.294 78.8925 80.2272 80.2362 68.587 81.1439C68.3958 81.1585 68.3899 81.4405 68.587 81.4422C80.2436 81.5263 92.355 82.0088 103.958 81.0213C105.206 80.915 105.246 79.0771 103.958 79.0595Z" fill="white"/>
<path d="M38.1886 94.8656C28.1248 94.7978 17.5492 94.0153 7.57279 95.4841C6.63265 95.6231 6.95456 96.9663 7.78333 97.0341C17.7551 97.8447 28.2269 96.352 38.1886 95.6331C38.6795 95.5979 38.6912 94.8685 38.1886 94.8656Z" fill="white"/>
<path d="M97.6041 101.957C84.1109 100.759 70.1059 102.322 56.5799 102.735C56.4004 102.742 56.4004 103.007 56.5799 103.011C70.1059 103.426 84.1109 104.99 97.6041 103.791C98.7918 103.686 98.7918 102.062 97.6041 101.957Z" fill="white"/>
<path d="M115.286 107.336C112.456 107.066 109.628 107.41 106.798 107.54C106.453 107.556 106.453 108.056 106.798 108.073C109.628 108.202 112.456 108.548 115.286 108.275C115.892 108.217 115.892 107.395 115.286 107.336Z" fill="white"/>
<path d="M43.1395 108.311C32.5563 108.249 21.5822 106.998 11.0646 108.46C9.96263 108.612 10.3572 110.171 11.3091 110.263C21.7898 111.255 32.6588 109.498 43.1395 108.974C43.5648 108.952 43.5695 108.314 43.1395 108.311Z" fill="white"/>
</svg>
