<svg width="48" height="32" viewBox="0 0 48 32" fill="none" xmlns="http://www.w3.org/2000/svg">
<path d="M11.9723 11.1908C12.8545 11.1908 13.6454 11.4908 14.2638 12.0724L15.9674 10.3988C14.9331 9.44765 13.5845 8.85645 11.9723 8.85645C9.64016 8.85645 7.62232 10.1788 6.6388 12.102C6.2332 12.9036 6 13.7956 6 14.7468C6 15.6988 6.2332 16.6004 6.6388 17.3916L6.64248 17.3892C7.62736 19.3284 9.64304 20.6372 11.9723 20.6372C13.5845 20.6372 14.9432 20.1164 15.9267 19.2148C17.0522 18.1932 17.7012 16.6804 17.7012 14.8876C17.7012 14.4764 17.6606 14.0756 17.5998 13.6852H11.9723V15.9492H15.1967C15.0547 16.7004 14.639 17.322 14.0002 17.742C13.4628 18.1028 12.7734 18.3036 11.9723 18.3036C10.4108 18.3036 9.09264 17.2716 8.62616 15.8692H8.6228C8.50336 15.5116 8.44368 15.1436 8.44368 14.7468C8.44368 14.3564 8.51464 13.9756 8.62616 13.6148V13.586C9.1112 12.2084 10.4318 11.1908 11.9723 11.1908Z" fill="white"/>
<path fill-rule="evenodd" clip-rule="evenodd" d="M23.0969 19.9285V15.7805H25.2975C26.2095 15.7805 26.9703 15.4901 27.5887 14.9093C28.2375 14.3285 28.5519 13.6069 28.5519 12.7349C28.5519 11.8837 28.2279 11.1621 27.5887 10.5717C26.9599 9.98049 26.1999 9.67969 25.2975 9.67969H21.7585V19.9285H23.0969ZM23.0969 14.5181V10.9421H25.3279C25.8551 10.9421 26.3015 11.1221 26.6455 11.4829C27.0007 11.8333 27.1831 12.2445 27.1831 12.7253C27.1831 13.2165 27.0007 13.6365 26.6455 13.9877C26.3015 14.3381 25.8551 14.5181 25.3279 14.5181H23.0969Z" fill="white"/>
<path fill-rule="evenodd" clip-rule="evenodd" d="M31.6245 12.6855C32.6077 12.6855 33.3885 12.9455 33.9565 13.4671C34.5245 13.9879 34.8085 14.6991 34.8085 15.6103V19.9383H33.5309V18.9663H33.4701C32.9221 19.7679 32.1821 20.1687 31.2693 20.1687C30.4885 20.1687 29.8293 19.9383 29.3021 19.4775C28.7749 19.0167 28.5117 18.4455 28.5117 17.7543C28.5117 17.0335 28.7853 16.4519 29.3429 16.0215C29.9005 15.5903 30.6405 15.3799 31.5733 15.3799C32.3645 15.3799 33.0237 15.5207 33.5309 15.8111V15.5103C33.5309 15.0495 33.3477 14.6591 32.9829 14.3487C32.6181 14.0279 32.1821 13.8671 31.6949 13.8671C30.9549 13.8671 30.3565 14.1783 29.9205 14.7991L28.7445 14.0679C29.4037 13.1463 30.3565 12.6855 31.6245 12.6855ZM29.9005 17.7847C29.9005 18.1255 30.0525 18.4159 30.3469 18.6463C30.6405 18.8767 30.9853 18.9863 31.3813 18.9863C31.9389 18.9863 32.4453 18.7759 32.8813 18.3759C33.3173 17.9647 33.5405 17.4839 33.5405 16.9327C33.1253 16.6127 32.5469 16.4423 31.7965 16.4423C31.2589 16.4423 30.8029 16.5727 30.4381 16.8327C30.0829 17.0831 29.9005 17.4039 29.9005 17.7847Z" fill="white"/>
<path d="M42.1478 12.9121L37.6862 23.0201H36.3174L37.9702 19.4841L35.0398 12.9121H36.4902L38.6094 17.9609H38.6398L40.6982 12.9121H42.1478Z" fill="white"/>
<path fill-rule="evenodd" clip-rule="evenodd" d="M0 3.83981C0 2.16061 1.3776 0.799805 3.07696 0.799805H44.9232C46.6224 0.799805 48 2.16061 48 3.83981V28.1598C48 29.839 46.6224 31.1998 44.9232 31.1998H3.07696C1.3776 31.1998 0 29.839 0 28.1598V3.83981ZM3.07696 1.40781H44.9232C46.2824 1.40781 47.3848 2.49661 47.3848 3.83981V28.1598C47.3848 29.503 46.2824 30.5918 44.9232 30.5918H3.07696C1.71744 30.5918 0.615363 29.503 0.615363 28.1598V3.83981C0.615363 2.49661 1.71744 1.40781 3.07696 1.40781Z" fill="white"/>
</svg>
