<svg width="40" height="33" viewBox="0 0 40 33" fill="none" xmlns="http://www.w3.org/2000/svg">
<path d="M25.5607 23.4938H14.8627V3.57617H25.5607V23.4938Z" fill="#6C6BBD"/>
<path d="M15.5433 13.5349C15.5433 9.50007 17.3675 5.89758 20.212 3.57598C18.125 1.87881 15.5124 0.870117 12.6523 0.870117C5.89638 0.870117 0.423584 6.53802 0.423584 13.5349C0.423584 20.5317 5.89638 26.1995 12.6523 26.1995C15.5124 26.1995 18.125 25.1908 20.212 23.4937C17.3675 21.1721 15.5433 17.5856 15.5433 13.5349Z" fill="#D32011"/>
<path d="M40 13.5349C40 20.5317 34.5279 26.1995 27.7719 26.1995C24.9116 26.1995 22.2991 25.1908 20.2117 23.4937C23.0566 21.1721 24.8809 17.5696 24.8809 13.5349C24.8809 9.50007 23.0566 5.89758 20.2117 3.57598C22.2991 1.87881 24.9116 0.870117 27.7719 0.870117C34.5279 0.870117 40 6.53802 40 13.5349Z" fill="#0099DF"/>
<path d="M29.179 29.1292C29.3179 29.1292 29.519 29.1613 29.6893 29.2253L29.4729 29.9138C29.3179 29.8497 29.179 29.8338 29.024 29.8338C28.5604 29.8338 28.3286 30.1379 28.3286 30.6983V32.5716H27.6333V29.2093H28.3286V29.6256C28.5143 29.3214 28.7768 29.1292 29.179 29.1292ZM26.5665 29.8818H25.4069V31.4028C25.4069 31.739 25.5151 31.9632 25.8704 31.9632C26.0562 31.9632 26.2879 31.8991 26.489 31.7711L26.6901 32.3955C26.4737 32.5556 26.1176 32.6517 25.809 32.6517C24.974 32.6517 24.6801 32.1873 24.6801 31.4028V29.8658H24.0155V29.2093H24.6801V28.1846H25.3915V29.2093H26.5504V29.8818H26.5665ZM17.5223 30.6023C17.5995 30.122 17.8778 29.7857 18.388 29.7857C18.8363 29.7857 19.13 30.0739 19.2074 30.6023H17.5223ZM19.9494 30.8905C19.9494 29.8497 19.3156 29.1292 18.4035 29.1292C17.445 29.1292 16.7802 29.8497 16.7802 30.8905C16.7802 31.9632 17.4758 32.6517 18.4498 32.6517C18.9445 32.6517 19.3929 32.5236 19.7794 32.1873L19.4392 31.643C19.1609 31.8671 18.8209 31.9952 18.4962 31.9952C18.0479 31.9952 17.6305 31.7711 17.5223 31.1787H19.9339C19.9494 31.0826 19.9494 30.9865 19.9494 30.8905ZM23.0569 30.0739C22.8558 29.9458 22.4537 29.7857 22.0523 29.7857C21.6655 29.7857 21.4337 29.9298 21.4337 30.186C21.4337 30.4102 21.6809 30.4742 21.9901 30.5222L22.3301 30.5703C23.0415 30.6823 23.459 30.9865 23.459 31.579C23.459 32.2194 22.918 32.6837 21.9748 32.6837C21.4491 32.6837 20.9541 32.5396 20.568 32.2514L20.908 31.675C21.1398 31.8671 21.4951 32.0273 21.9901 32.0273C22.4691 32.0273 22.7323 31.8832 22.7323 31.6109C22.7323 31.4188 22.5466 31.3228 22.1605 31.2587L21.8198 31.2107C21.0937 31.0986 20.6916 30.7624 20.6916 30.218C20.6916 29.5456 21.2173 29.1453 22.0362 29.1453C22.5466 29.1453 23.0262 29.2573 23.3662 29.4975L23.0569 30.0739ZM31.7607 29.8177C31.6218 29.8177 31.4822 29.8497 31.3586 29.8977C31.235 29.9458 31.1268 30.0259 31.034 30.122C30.9411 30.218 30.8643 30.3301 30.8175 30.4582C30.7715 30.5862 30.74 30.7303 30.74 30.8905C30.74 31.0506 30.7715 31.1947 30.8175 31.3228C30.8643 31.4508 30.9411 31.5629 31.034 31.659C31.1268 31.755 31.235 31.8351 31.3586 31.8832C31.4822 31.9312 31.6218 31.9632 31.7607 31.9632C31.8997 31.9632 32.0393 31.9312 32.1629 31.8832C32.2864 31.8351 32.3947 31.755 32.4875 31.659C32.5804 31.5629 32.6572 31.4508 32.7039 31.3228C32.75 31.1947 32.7807 31.0506 32.7807 30.8905C32.7807 30.7303 32.75 30.5862 32.7039 30.4582C32.6572 30.3301 32.5804 30.218 32.4875 30.122C32.3947 30.0259 32.2864 29.9458 32.1629 29.8977C32.0547 29.8497 31.915 29.8177 31.7607 29.8177ZM31.7607 29.1292C32.0079 29.1292 32.2397 29.1773 32.4561 29.2733C32.6725 29.3694 32.8582 29.4815 33.0132 29.6416C33.1675 29.8017 33.2911 29.9938 33.3839 30.202C33.4768 30.4261 33.5229 30.6503 33.5229 30.9065C33.5229 31.1626 33.4768 31.4028 33.3839 31.6109C33.2911 31.8191 33.1675 32.0112 33.0132 32.1714C32.8582 32.3314 32.6725 32.4596 32.4561 32.5396C32.2397 32.6357 32.0079 32.6677 31.7607 32.6677C31.5136 32.6677 31.2811 32.6196 31.0647 32.5396C30.8483 32.4435 30.6633 32.3314 30.5083 32.1714C30.354 32.0112 30.2304 31.8191 30.1375 31.6109C30.0447 31.3868 29.9986 31.1626 29.9986 30.9065C29.9986 30.6503 30.0447 30.4101 30.1375 30.202C30.2304 29.9938 30.354 29.8017 30.5083 29.6416C30.6633 29.4815 30.8483 29.3534 31.0647 29.2733C31.2811 29.1613 31.5136 29.1292 31.7607 29.1292ZM13.3944 30.8905C13.3944 30.298 13.7655 29.8177 14.3839 29.8177C14.9713 29.8177 15.3578 30.282 15.3578 30.8905C15.3578 31.4989 14.9559 31.9632 14.3839 31.9632C13.7809 31.9632 13.3944 31.4829 13.3944 30.8905ZM16.0381 30.8905V29.2093H15.3269V29.6256C15.0951 29.3214 14.7704 29.1292 14.3066 29.1292C13.3944 29.1292 12.6833 29.8658 12.6833 30.8905C12.6833 31.9152 13.3944 32.6517 14.3066 32.6517C14.7704 32.6517 15.1105 32.4596 15.3269 32.1553V32.5716H16.0381V30.8905ZM12.0494 32.5716V30.4582C12.0494 29.6576 11.5547 29.1292 10.7663 29.1292C10.3489 29.1292 9.91604 29.2573 9.62226 29.7217C9.40583 29.3534 9.05027 29.1292 8.55556 29.1292C8.21542 29.1292 7.87535 29.2413 7.59707 29.6256V29.2093H6.88586V32.5716H7.59707V30.7144C7.59707 30.1379 7.90621 29.8177 8.38549 29.8177C8.84927 29.8177 9.09662 30.1379 9.09662 30.6983V32.5716H9.80783V30.7144C9.80783 30.1379 10.1325 29.8177 10.5963 29.8177C11.0755 29.8177 11.3074 30.1379 11.3074 30.6983V32.5716H12.0494Z" fill="white"/>
</svg>
