<svg width="43" height="13" viewBox="0 0 43 13" fill="none" xmlns="http://www.w3.org/2000/svg">
<path fill-rule="evenodd" clip-rule="evenodd" d="M30.6943 6.19922V12.9936H34.3386V8.96726H38.4695C40.2079 8.95387 41.6846 7.80376 42.2415 6.19922H30.6943Z" fill="white"/>
<path fill-rule="evenodd" clip-rule="evenodd" d="M30.2076 0.600586C30.4199 3.37779 32.9568 5.57052 36.0554 5.57052C36.0658 5.57052 42.393 5.57052 42.393 5.57052C42.4393 5.31588 42.464 5.05297 42.464 4.7842C42.464 2.48365 40.6722 0.617606 38.4551 0.600668L30.2076 0.600586Z" fill="white"/>
<path fill-rule="evenodd" clip-rule="evenodd" d="M24.8137 5.50443L24.8161 5.49814L24.8169 5.49822C24.8544 5.42874 24.9254 5.38181 25.0076 5.38181C25.1265 5.38181 25.223 5.4798 25.2262 5.602V12.9312H28.8713V0.600586H25.2262C24.7643 0.616532 24.2425 0.967763 24.0478 1.39897L21.1479 7.84084C21.1407 7.86719 21.1296 7.89174 21.1144 7.9138L21.1136 7.91594V7.91586C21.0697 7.98121 20.9963 8.0241 20.9134 8.0241C20.7793 8.0241 20.6708 7.9114 20.6708 7.77242V0.600586H17.026V12.9312H20.6708V12.9298C21.128 12.905 21.6377 12.5577 21.8292 12.1328L24.8057 5.52103C24.8081 5.51541 24.8105 5.50988 24.8137 5.50443Z" fill="white"/>
<path fill-rule="evenodd" clip-rule="evenodd" d="M11.204 5.7152L9.07382 12.9312H6.4519L4.32046 5.71081C4.29988 5.59522 4.20207 5.50765 4.08448 5.50765C3.95197 5.50765 3.8445 5.61886 3.8445 5.75609C3.8445 5.75717 3.84451 5.75824 3.84459 5.75931L3.8445 12.9312H0.199829V0.600586H3.32818H4.25991C4.93053 0.600586 5.63329 1.13962 5.82931 1.8035L7.60302 7.81209C7.69134 8.1111 7.83446 8.11077 7.92261 7.81209L9.69641 1.8035C9.89258 1.13912 10.5951 0.600586 11.2658 0.600586H12.1972H15.3253V12.9312H11.6807V5.75931C11.6807 5.75824 11.6807 5.75717 11.6807 5.75609C11.6807 5.61886 11.5732 5.50765 11.4407 5.50765C11.3217 5.50765 11.2228 5.59746 11.204 5.7152Z" fill="white"/>
</svg>
