<svg width="12" height="15" viewBox="0 0 12 15" fill="none" xmlns="http://www.w3.org/2000/svg">
<path d="M4.55774 7.51505C4.97552 8.09696 5.34853 8.79823 5.61711 9.52935L6.93013 9.63379C7.33299 8.27601 7.87013 7.30616 8.45204 6.54521C9.31744 6.87346 10.4216 6.85854 11.0632 6.30648C12.1673 5.35155 12.0628 2.45694 11.7794 0.785822C11.7346 0.487408 11.3467 0.397884 11.1676 0.636615C9.63077 2.60615 6.93013 2.87472 6.97489 4.76965C6.98981 5.1725 7.06441 5.42616 7.34791 5.72457C8.48188 4.27726 9.89934 3.7998 9.97395 3.76996C9.98887 3.76996 10.0038 3.75504 10.0038 3.75504C9.82474 3.8744 9.18315 4.42647 8.4968 5.26203C7.66124 6.14235 6.87044 7.2614 6.28854 9.03696C6.03489 8.41029 5.72155 7.81347 5.36345 7.29124C4.64726 6.0379 3.70726 5.18743 3.51329 5.0233C3.52821 5.0233 3.52821 5.0233 3.54313 5.03822C3.60281 5.06806 4.79647 5.51568 5.73647 6.78394C5.99012 6.53029 6.06473 6.3214 6.07965 5.97822C6.16917 4.35187 3.85647 4.05345 2.60313 2.32265C2.45392 2.11376 2.12567 2.18837 2.06598 2.44202C1.78249 3.85948 1.60344 6.33632 2.52852 7.1868C3.02091 7.63442 3.84154 7.6941 4.55774 7.51505Z" fill="#043E44"/>
<path d="M10.3171 11.1408C10.0038 11.2452 9.48155 11.3795 8.91457 11.4989C8.70568 11.8271 8.33266 12.0957 7.76567 12.1852C7.63139 12.215 7.48218 12.215 7.31805 12.215C6.91519 12.215 6.45265 12.1703 5.93043 12.1106C5.90059 12.1106 5.85583 12.1106 5.82598 12.0957C5.70662 12.0808 5.58725 11.9912 5.58725 11.8569C5.57233 11.6928 5.70662 11.5735 5.87075 11.5884C5.91551 11.5884 5.94535 11.6033 5.99011 11.6033C6.66154 11.6779 7.28821 11.7376 7.69107 11.6779C8.43711 11.5585 8.64599 11.1109 8.61615 10.723C8.58631 10.4096 8.3625 10.1112 7.98948 10.1261C7.46726 10.156 6.85551 10.0963 6.25868 10.0515C5.57233 9.99186 4.87106 9.96202 4.37868 10.0068C3.82661 10.0665 2.69264 10.4544 1.69295 11.1109C1.20057 11.4392 0.648506 11.8122 0.320251 12.0509C0.156124 12.1703 0.111361 12.409 0.245648 12.5731L1.64819 14.4681C1.76756 14.6322 1.99137 14.662 2.1555 14.5427L2.69264 14.1398C2.82693 14.0503 2.99105 14.0204 3.14026 14.0652C4.11011 14.3935 5.13963 14.6173 5.81106 14.662C7.28821 14.7665 10.153 13.0655 10.9885 12.5135C11.7943 11.9614 11.2273 10.8125 10.3171 11.1408Z" fill="#043E44"/>
</svg>
