<svg width="45" height="16" viewBox="0 0 45 16" fill="none" xmlns="http://www.w3.org/2000/svg">
<path d="M19.8279 15.4572H16.2335L18.4817 1.06055H22.0759L19.8279 15.4572Z" fill="white"/>
<path d="M32.8574 1.4127C32.1485 1.12145 31.024 0.799805 29.6336 0.799805C26.084 0.799805 23.5845 2.76012 23.5692 5.56269C23.5397 7.63049 25.3588 8.77895 26.7193 9.46844C28.1099 10.173 28.5826 10.6328 28.5826 11.2608C28.5685 12.2252 27.4589 12.6698 26.424 12.6698C24.9891 12.6698 24.2202 12.4406 23.0516 11.904L22.5783 11.674L22.0753 14.9058C22.9183 15.3035 24.4715 15.6565 26.084 15.6719C29.8555 15.6719 32.3108 13.7419 32.3399 10.7554C32.3543 9.11647 31.3937 7.86068 29.3228 6.83459C28.0656 6.17583 27.2958 5.73165 27.2958 5.05769C27.3105 4.44496 27.9469 3.81736 29.3661 3.81736C30.5345 3.78662 31.3931 4.07754 32.0435 4.36862L32.3686 4.52147L32.8574 1.4127Z" fill="white"/>
<path d="M37.6348 10.357C37.9307 9.5299 39.0698 6.32892 39.0698 6.32892C39.0548 6.35965 39.3652 5.48658 39.5427 4.9506L39.7939 6.1911C39.7939 6.1911 40.4746 9.63714 40.6224 10.357C40.0606 10.357 38.3447 10.357 37.6348 10.357ZM42.0716 1.06055H39.2913C38.4339 1.06055 37.7826 1.32072 37.4127 2.25503L32.0737 15.4569H35.8452C35.8452 15.4569 36.4661 13.6801 36.5995 13.2974C37.0133 13.2974 40.6821 13.2974 41.2143 13.2974C41.3176 13.8028 41.6432 15.4569 41.6432 15.4569H44.9713L42.0716 1.06055Z" fill="white"/>
<path d="M13.2311 1.06055L9.71105 10.8776L9.32635 8.88668C8.6756 6.58926 6.63458 4.09322 4.35693 2.85206L7.5812 15.4419H11.3821L17.0318 1.06055H13.2311Z" fill="white"/>
<path d="M6.44204 1.06055H0.659078L0.599915 1.35146C5.11098 2.54611 8.0986 5.42592 9.32607 8.88724L8.06893 2.27073C7.8619 1.35122 7.22591 1.09087 6.44204 1.06055Z" fill="white"/>
</svg>
